<svg xmlns="http://www.w3.org/2000/svg" width="800" height="450" viewBox="0 0 800 450">
  <defs>
    <linearGradient id="bg5" x1="0%" y1="0%" x2="100%" y2="100%">
      <stop offset="0%" style="stop-color:#56CCF2;stop-opacity:1" />
      <stop offset="100%" style="stop-color:#2F80ED;stop-opacity:1" />
    </linearGradient>
  </defs>
  <rect width="800" height="450" fill="url(#bg5)"/>
  <g transform="translate(300, 100)">
    <rect x="0" y="0" width="200" height="300" rx="30" fill="#ffffff" stroke="rgba(0,0,0,0.1)" stroke-width="2"/>
    <rect x="20" y="20" width="160" height="40" rx="8" fill="#f0f0f0"/>
    <rect x="20" y="80" width="70" height="70" rx="12" fill="#56CCF2"/>
    <rect x="100" y="80" width="80" height="30" rx="6" fill="#e0e0e0"/>
    <rect x="100" y="120" width="80" height="30" rx="6" fill="#f5f5f5"/>
    <rect x="20" y="170" width="160" height="50" rx="8" fill="#e8f5e9"/>
    <rect x="20" y="240" width="160" height="40" rx="8" fill="#2F80ED"/>
    <circle cx="100" cy="340" r="15" fill="#e0e0e0"/>
  </g>
  <text x="580" y="200" text-anchor="middle" fill="#ffffff" font-family="Microsoft YaHei, sans-serif" font-size="22" font-weight="bold">健康管理APP</text>
  <text x="580" y="235" text-anchor="middle" fill="#ffffff" font-family="Microsoft YaHei, sans-serif" font-size="20" font-weight="bold">界面设计</text>
  <text x="580" y="270" text-anchor="middle" fill="rgba(255,255,255,0.8)" font-family="Microsoft YaHei, sans-serif" font-size="13">UI设计类 · 移动端 · 数据可视化</text>
  <g transform="translate(650, 80)">
    <rect x="-50" y="-20" width="100" height="40" rx="20" fill="rgba(255,255,255,0.2)"/>
    <text x="0" y="5" text-anchor="middle" fill="#ffffff" font-family="Microsoft YaHei, sans-serif" font-size="12">2024.03</text>
  </g>
</svg>